
        <svg xmlns="http://www.w3.org/2000/svg" xmlns:xlink="http://www.w3.org/1999/xlink" version="1.1" width="2815.2188951920375" 
        height="3169.336474898769" viewBox="0 0 2815.2188951920375 3169.336474898769">
			
			<g transform="scale(8.46682374493846) translate(10, 10)">
				<defs id="SvgjsDefs5508"></defs><g id="SvgjsG5509" featureKey="rootContainer" transform="matrix(6.3004014813942035,0,0,6.3004014813942035,0.000046358657472104394,0.02629501308574099)" fill="#253140"><path xmlns="http://www.w3.org/2000/svg" d="M23.11 55.78L1.69 43.41A3.39 3.39 0 0 1 0 40.48V15.75a3.39 3.39 0 0 1 1.69-2.94L23.11.45a3.39 3.39 0 0 1 3.39 0l21.41 12.37a3.39 3.39 0 0 1 1.69 2.94v24.72a3.39 3.39 0 0 1-1.69 2.94L26.5 55.78a3.39 3.39 0 0 1-3.39 0z"></path></g><g id="SvgjsG5510" featureKey="nameFeature-0" transform="matrix(4.226542715338937,0,0,4.226542715338937,49.23753407390484,66.97209482827978)" fill="#f6f6f6"><path d="M21.4 12 l0 5.36 l-6.96 0 l0 22.64 l-5.84 0 l0 -22.64 l-7 0 l0 -5.36 l19.8 0 z M48.92 37 c-2.48 2.24 -5.8 3.4 -9.52 3.4 c-7.84 0 -14.6 -5.88 -14.6 -14.4 s6.76 -14.4 14.6 -14.4 c3.68 0 6.96 1.2 9.36 3.32 l-3.52 3.96 c-1.48 -1.04 -3.48 -1.8 -5.52 -1.8 c-5.04 0 -8.84 3.72 -8.84 8.92 s3.8 8.92 8.84 8.92 c2.12 0 4.2 -0.8 5.72 -2 z"></path></g>
			</g>
		</svg>
	