<?xml version="1.0" standalone="no"?>
<!DOCTYPE svg PUBLIC "-//W3C//DTD SVG 20010904//EN"
 "http://www.w3.org/TR/2001/REC-SVG-20010904/DTD/svg10.dtd">
<svg version="1.0" xmlns="http://www.w3.org/2000/svg"
 width="3169.000000pt" height="3169.000000pt" viewBox="0 0 3169.000000 3169.000000"
 preserveAspectRatio="xMidYMid meet">
<metadata>
Created by potrace 1.14, written by Peter Selinger 2001-2017
</metadata>
<g transform="translate(0.000000,3169.000000) scale(0.100000,-0.100000)"
fill="#000000" stroke="none">
<path d="M15670 30834 c-14 -2 -59 -9 -100 -15 -179 -25 -376 -90 -544 -177
-223 -115 -11603 -6691 -11681 -6749 -400 -300 -656 -746 -715 -1243 -8 -70
-10 -1898 -8 -6865 l3 -6770 27 -121 c66 -290 181 -539 352 -759 88 -111 265
-279 377 -357 91 -64 11434 -6620 11634 -6724 124 -65 258 -117 384 -148 178
-45 237 -51 461 -50 193 0 228 3 341 27 140 29 289 79 412 136 87 40 11571
6666 11670 6733 428 290 722 779 776 1293 9 83 11 1779 9 6870 l-3 6760 -27
121 c-84 372 -249 676 -504 926 -107 104 -156 145 -250 209 -106 71 -11575
6696 -11669 6740 -118 55 -273 106 -409 135 -100 21 -155 26 -316 29 -107 2
-206 2 -220 -1z m5800 -9838 c1032 -116 1888 -454 2607 -1031 71 -56 134 -109
141 -118 11 -13 -75 -114 -599 -703 -336 -379 -619 -697 -629 -708 -17 -18
-20 -17 -91 31 -409 275 -952 486 -1434 557 -282 42 -622 46 -895 11 -720 -91
-1348 -391 -1830 -875 -236 -237 -412 -484 -565 -795 -231 -468 -335 -929
-335 -1485 0 -479 69 -864 227 -1265 468 -1190 1592 -1934 2923 -1935 674 0
1376 227 1938 629 63 45 115 81 117 81 3 0 930 -1085 1232 -1442 13 -14 0 -28
-122 -130 -271 -226 -514 -384 -850 -554 -577 -291 -1165 -455 -1895 -526
-182 -18 -839 -17 -1020 0 -1277 126 -2406 647 -3265 1507 -793 794 -1282
1805 -1424 2945 -34 265 -44 492 -38 794 6 294 14 392 48 641 200 1465 1001
2733 2234 3537 745 486 1601 772 2530 848 175 14 825 5 995 -14z m-7030 -1076
l0 -960 -1245 0 -1245 0 0 -4050 0 -4050 -1045 0 -1045 0 0 4050 0 4050 -1250
0 -1250 0 0 960 0 960 3540 0 3540 0 0 -960z"/>
</g>
</svg>
